<?xml version="1.0" encoding="UTF-8"?>
<svg xmlns="http://www.w3.org/2000/svg" xmlns:xlink="http://www.w3.org/1999/xlink" viewBox="0 0 16 16" width="16px" height="16px">
<g id="surface28376980">
<path style=" stroke:none;fill-rule:nonzero;fill:rgb(100%,100%,100%);fill-opacity:1;" d="M 3.953125 1.601562 L 4.902344 5.019531 L 4.902344 6.660156 L 5.722656 6.660156 L 5.722656 5.019531 L 6.679688 1.601562 L 5.855469 1.601562 L 5.511719 3.15625 C 5.414062 3.609375 5.351562 3.933594 5.324219 4.125 L 5.300781 4.125 C 5.257812 3.855469 5.195312 3.53125 5.113281 3.148438 L 4.78125 1.601562 Z M 7.636719 2.890625 C 7.359375 2.890625 7.132812 2.945312 6.964844 3.054688 C 6.792969 3.167969 6.667969 3.34375 6.585938 3.585938 C 6.507812 3.824219 6.464844 4.144531 6.464844 4.542969 L 6.464844 5.078125 C 6.464844 5.472656 6.5 5.789062 6.570312 6.027344 C 6.640625 6.261719 6.761719 6.4375 6.925781 6.550781 C 7.09375 6.664062 7.324219 6.71875 7.617188 6.722656 C 7.902344 6.722656 8.128906 6.664062 8.296875 6.554688 C 8.464844 6.441406 8.585938 6.269531 8.660156 6.03125 C 8.734375 5.789062 8.769531 5.472656 8.769531 5.082031 L 8.769531 4.542969 C 8.769531 4.144531 8.730469 3.828125 8.65625 3.585938 C 8.578125 3.347656 8.460938 3.171875 8.292969 3.058594 C 8.128906 2.945312 7.910156 2.890625 7.636719 2.890625 Z M 9.199219 2.964844 L 9.199219 5.726562 C 9.199219 6.066406 9.261719 6.320312 9.375 6.480469 C 9.492188 6.640625 9.671875 6.71875 9.917969 6.71875 C 10.273438 6.71875 10.539062 6.550781 10.714844 6.207031 L 10.730469 6.207031 L 10.804688 6.660156 L 11.457031 6.660156 L 11.457031 2.964844 L 10.625 2.964844 L 10.625 5.898438 C 10.59375 5.96875 10.542969 6.023438 10.476562 6.070312 C 10.410156 6.113281 10.339844 6.136719 10.269531 6.136719 C 10.183594 6.136719 10.125 6.097656 10.085938 6.027344 C 10.050781 5.957031 10.035156 5.84375 10.035156 5.675781 L 10.035156 2.964844 Z M 7.617188 3.464844 C 7.734375 3.464844 7.816406 3.523438 7.863281 3.648438 C 7.910156 3.769531 7.929688 3.964844 7.929688 4.230469 L 7.929688 5.382812 C 7.929688 5.65625 7.910156 5.851562 7.863281 5.972656 C 7.816406 6.09375 7.734375 6.152344 7.617188 6.152344 C 7.503906 6.152344 7.421875 6.09375 7.378906 5.972656 C 7.332031 5.851562 7.308594 5.65625 7.308594 5.382812 L 7.308594 4.230469 C 7.308594 3.964844 7.335938 3.769531 7.378906 3.648438 C 7.425781 3.527344 7.503906 3.464844 7.617188 3.464844 Z M 3.464844 7.414062 C 2.730469 7.414062 2.132812 8.011719 2.132812 8.746094 L 2.132812 13.011719 C 2.132812 13.75 2.730469 14.347656 3.464844 14.347656 L 12.535156 14.347656 C 13.269531 14.347656 13.867188 13.75 13.867188 13.011719 L 13.867188 8.746094 C 13.867188 8.011719 13.269531 7.414062 12.535156 7.414062 Z M 8.03125 8.640625 L 8.707031 8.640625 L 8.707031 10.285156 L 8.714844 10.285156 C 8.773438 10.164062 8.859375 10.070312 8.972656 9.996094 C 9.085938 9.921875 9.207031 9.886719 9.335938 9.886719 C 9.5 9.886719 9.632812 9.933594 9.726562 10.019531 C 9.820312 10.109375 9.890625 10.25 9.933594 10.449219 C 9.972656 10.644531 9.996094 10.917969 9.996094 11.269531 L 9.996094 11.761719 C 9.996094 12.226562 9.941406 12.566406 9.828125 12.785156 C 9.714844 13.003906 9.539062 13.117188 9.304688 13.117188 C 9.171875 13.117188 9.050781 13.085938 8.941406 13.023438 C 8.832031 12.964844 8.753906 12.878906 8.699219 12.773438 L 8.683594 12.773438 L 8.613281 13.070312 L 8.03125 13.070312 Z M 3.832031 8.796875 L 5.914062 8.796875 L 5.914062 9.363281 L 5.214844 9.363281 L 5.214844 13.070312 L 4.527344 13.070312 L 4.527344 9.363281 L 3.832031 9.363281 Z M 11.261719 9.890625 C 11.503906 9.890625 11.6875 9.933594 11.816406 10.019531 C 11.945312 10.109375 12.039062 10.246094 12.089844 10.433594 C 12.144531 10.621094 12.167969 10.878906 12.167969 11.207031 L 12.167969 11.742188 L 10.992188 11.742188 L 10.992188 11.902344 C 10.992188 12.101562 11 12.25 11.011719 12.351562 C 11.023438 12.449219 11.046875 12.523438 11.085938 12.570312 C 11.121094 12.617188 11.179688 12.636719 11.257812 12.636719 C 11.363281 12.636719 11.433594 12.597656 11.476562 12.515625 C 11.515625 12.4375 11.535156 12.300781 11.539062 12.109375 L 12.144531 12.144531 C 12.148438 12.171875 12.148438 12.210938 12.148438 12.257812 C 12.148438 12.546875 12.070312 12.761719 11.914062 12.902344 C 11.753906 13.046875 11.53125 13.117188 11.242188 13.117188 C 10.898438 13.117188 10.65625 13.007812 10.515625 12.792969 C 10.375 12.574219 10.304688 12.238281 10.304688 11.785156 L 10.304688 11.238281 C 10.304688 10.769531 10.378906 10.429688 10.523438 10.210938 C 10.667969 9.996094 10.914062 9.890625 11.261719 9.890625 Z M 6.90625 9.945312 L 7.609375 9.945312 L 7.609375 13.066406 L 7.605469 13.066406 L 7.605469 13.070312 L 7.058594 13.070312 L 6.996094 12.6875 L 6.980469 12.6875 C 6.832031 12.976562 6.609375 13.121094 6.308594 13.121094 C 6.101562 13.121094 5.949219 13.050781 5.851562 12.917969 C 5.753906 12.78125 5.703125 12.566406 5.703125 12.28125 L 5.703125 9.949219 L 6.40625 9.949219 L 6.40625 12.238281 C 6.40625 12.378906 6.421875 12.480469 6.453125 12.539062 C 6.484375 12.597656 6.535156 12.625 6.605469 12.625 C 6.667969 12.625 6.726562 12.609375 6.78125 12.570312 C 6.835938 12.53125 6.878906 12.484375 6.90625 12.425781 Z M 11.246094 10.363281 C 11.171875 10.363281 11.117188 10.386719 11.082031 10.429688 C 11.046875 10.472656 11.023438 10.546875 11.011719 10.644531 C 11 10.746094 10.992188 10.898438 10.992188 11.101562 L 10.992188 11.324219 L 11.507812 11.324219 L 11.507812 11.101562 C 11.507812 10.902344 11.5 10.75 11.488281 10.644531 C 11.472656 10.542969 11.449219 10.46875 11.414062 10.425781 C 11.378906 10.386719 11.324219 10.363281 11.246094 10.363281 Z M 9.019531 10.386719 C 8.949219 10.386719 8.886719 10.414062 8.832031 10.46875 C 8.773438 10.523438 8.730469 10.589844 8.707031 10.675781 L 8.707031 12.449219 C 8.738281 12.503906 8.777344 12.542969 8.828125 12.570312 C 8.878906 12.597656 8.929688 12.613281 8.988281 12.613281 C 9.0625 12.613281 9.121094 12.585938 9.167969 12.53125 C 9.210938 12.476562 9.242188 12.382812 9.261719 12.253906 C 9.277344 12.125 9.289062 11.949219 9.289062 11.722656 L 9.289062 11.320312 C 9.289062 11.074219 9.28125 10.886719 9.265625 10.753906 C 9.25 10.621094 9.222656 10.527344 9.183594 10.472656 C 9.144531 10.414062 9.089844 10.386719 9.019531 10.386719 Z M 9.019531 10.386719 "/>
</g>
</svg>
