<?xml version="1.0" encoding="UTF-8"?>
<svg xmlns="http://www.w3.org/2000/svg" xmlns:xlink="http://www.w3.org/1999/xlink" viewBox="0 0 16 16" width="16px" height="16px">
<g id="surface28333609">
<path style=" stroke:none;fill-rule:nonzero;fill:rgb(100%,100%,100%);fill-opacity:1;" d="M 14.933594 3.699219 C 14.421875 3.925781 13.875 4.078125 13.300781 4.148438 C 13.886719 3.796875 14.335938 3.238281 14.550781 2.574219 C 14 2.898438 13.390625 3.136719 12.742188 3.265625 C 12.222656 2.710938 11.484375 2.367188 10.667969 2.367188 C 9.09375 2.367188 7.820312 3.640625 7.820312 5.210938 C 7.820312 5.433594 7.847656 5.652344 7.894531 5.859375 C 5.53125 5.742188 3.433594 4.609375 2.03125 2.886719 C 1.789062 3.304688 1.648438 3.792969 1.648438 4.316406 C 1.648438 5.304688 2.148438 6.175781 2.910156 6.683594 C 2.445312 6.667969 2.007812 6.542969 1.625 6.328125 C 1.625 6.339844 1.625 6.351562 1.625 6.363281 C 1.625 7.742188 2.605469 8.894531 3.90625 9.152344 C 3.667969 9.21875 3.414062 9.253906 3.15625 9.253906 C 2.972656 9.253906 2.792969 9.234375 2.621094 9.203125 C 2.984375 10.332031 4.035156 11.15625 5.277344 11.179688 C 4.304688 11.941406 3.078125 12.398438 1.746094 12.398438 C 1.515625 12.398438 1.289062 12.382812 1.066406 12.355469 C 2.324219 13.164062 3.820312 13.632812 5.425781 13.632812 C 10.660156 13.632812 13.519531 9.300781 13.519531 5.539062 C 13.519531 5.417969 13.519531 5.292969 13.511719 5.171875 C 14.070312 4.769531 14.550781 4.269531 14.933594 3.699219 Z M 14.933594 3.699219 "/>
</g>
</svg>
